# xmcd
# 
# Track frame offsets:
#     187
#     23762
#     48302
#     78570
#     101130
#     124447
#     138515
#     154367
#     177835
#     201757
#     223865
#     262790
# 
# Disc length: 3852
# 
# Revision: 4
# Processed by: cddbd v1.5.2PL0 Copyright (c) Steve Scherf et al.
# Submitted via: fre:ac v1.0.17
# 
DISCID=ad0f0a0c
DTITLE=Robben Ford - Tiger Walk
DYEAR=1997
DGENRE=Blues
TTITLE0=In the Beginning
TTITLE1=Ghosts
TTITLE2=Freedom
TTITLE3=Red Lady w/ Cello
TTITLE4=Oasis
TTITLE5=Just Like It Is
TTITLE6=I Cant Stand the Rain
TTITLE7=The Champ
TTITLE8=Tiger Walk
TTITLE9=Comin' up
TTITLE10=Ray Charles Bonus Track
TTITLE11=Cadillac
EXTD=YEAR: 1997
EXTT0=
EXTT1=
EXTT2=
EXTT3=
EXTT4=
EXTT5=
EXTT6=
EXTT7=
EXTT8=
EXTT9=
EXTT10=
EXTT11=
PLAYORDER=
